G75*
%MOIN*%
%OFA0B0*%
%FSLAX25Y25*%
%IPPOS*%
%LPD*%
%AMOC8*
5,1,8,0,0,1.08239X$1,22.5*
%
%ADD10C,0.07400*%
%ADD11C,0.04362*%
%ADD12C,0.01000*%
D10*
X0029045Y0025450D03*
X0029045Y0035450D03*
X0055545Y0034500D03*
X0096545Y0033300D03*
X0106545Y0033300D03*
X0117245Y0033200D03*
X0117245Y0023200D03*
X0106545Y0023300D03*
X0096545Y0023300D03*
X0096545Y0013300D03*
X0106545Y0013300D03*
X0117245Y0013200D03*
D11*
X0090745Y0017681D03*
X0069545Y0010500D03*
X0069214Y0016169D03*
X0063545Y0020500D03*
X0080545Y0030500D03*
D12*
X0024095Y0023857D02*
X0024095Y0007000D01*
X0119933Y0007000D01*
X0120403Y0007046D01*
X0121273Y0007407D01*
X0121939Y0008072D01*
X0122299Y0008942D01*
X0122345Y0009412D01*
X0122345Y0032160D01*
X0122317Y0031982D01*
X0122064Y0031204D01*
X0121693Y0030475D01*
X0121211Y0029812D01*
X0120633Y0029234D01*
X0119971Y0028753D01*
X0119241Y0028381D01*
X0118463Y0028128D01*
X0118427Y0028122D01*
X0120077Y0027439D01*
X0121484Y0026032D01*
X0122245Y0024195D01*
X0122245Y0022205D01*
X0121484Y0020368D01*
X0120077Y0018961D01*
X0118240Y0018200D01*
X0116251Y0018200D01*
X0114413Y0017439D01*
X0113006Y0016032D01*
X0112245Y0014195D01*
X0112245Y0012205D01*
X0113006Y0010368D01*
X0114413Y0008961D01*
X0116251Y0008200D01*
X0118240Y0008200D01*
X0120077Y0008961D01*
X0121484Y0010368D01*
X0122245Y0012205D01*
X0122245Y0014195D01*
X0121484Y0016032D01*
X0120077Y0017439D01*
X0118240Y0018200D01*
X0116251Y0018200D01*
X0114413Y0018961D01*
X0113006Y0020368D01*
X0112245Y0022205D01*
X0112245Y0024195D01*
X0113006Y0026032D01*
X0114413Y0027439D01*
X0116063Y0028122D01*
X0116027Y0028128D01*
X0115249Y0028381D01*
X0114520Y0028753D01*
X0113858Y0029234D01*
X0113279Y0029812D01*
X0112798Y0030475D01*
X0112426Y0031204D01*
X0112173Y0031982D01*
X0112060Y0032700D01*
X0116745Y0032700D01*
X0116745Y0033700D01*
X0112060Y0033700D01*
X0112173Y0034418D01*
X0112426Y0035196D01*
X0112798Y0035925D01*
X0113279Y0036588D01*
X0113858Y0037166D01*
X0114520Y0037647D01*
X0115249Y0038019D01*
X0116027Y0038272D01*
X0116745Y0038386D01*
X0116745Y0033700D01*
X0117745Y0033700D01*
X0117745Y0038386D01*
X0118463Y0038272D01*
X0119241Y0038019D01*
X0119971Y0037647D01*
X0120633Y0037166D01*
X0121211Y0036588D01*
X0121693Y0035925D01*
X0122064Y0035196D01*
X0122317Y0034418D01*
X0122345Y0034240D01*
X0122345Y0036927D01*
X0122292Y0037468D01*
X0121878Y0038468D01*
X0121113Y0039233D01*
X0120113Y0039647D01*
X0119572Y0039700D01*
X0031850Y0039700D01*
X0031877Y0039689D01*
X0033284Y0038282D01*
X0034045Y0036445D01*
X0034045Y0034455D01*
X0033284Y0032618D01*
X0031877Y0031211D01*
X0030227Y0030528D01*
X0030263Y0030522D01*
X0031041Y0030269D01*
X0031771Y0029897D01*
X0032433Y0029416D01*
X0033011Y0028838D01*
X0033493Y0028175D01*
X0033864Y0027446D01*
X0034117Y0026668D01*
X0034231Y0025950D01*
X0029545Y0025950D01*
X0029545Y0024950D01*
X0029545Y0020264D01*
X0030263Y0020378D01*
X0031041Y0020631D01*
X0031771Y0021003D01*
X0032433Y0021484D01*
X0033011Y0022062D01*
X0033493Y0022725D01*
X0033864Y0023454D01*
X0034117Y0024232D01*
X0034231Y0024950D01*
X0029545Y0024950D01*
X0028545Y0024950D01*
X0028545Y0020264D01*
X0027827Y0020378D01*
X0027049Y0020631D01*
X0026320Y0021003D01*
X0025658Y0021484D01*
X0025079Y0022062D01*
X0024598Y0022725D01*
X0024226Y0023454D01*
X0024095Y0023857D01*
X0024095Y0023473D02*
X0024220Y0023473D01*
X0024095Y0022475D02*
X0024779Y0022475D01*
X0024095Y0021476D02*
X0025668Y0021476D01*
X0024095Y0020478D02*
X0027521Y0020478D01*
X0028545Y0020478D02*
X0029545Y0020478D01*
X0030569Y0020478D02*
X0060064Y0020478D01*
X0060064Y0019808D02*
X0060594Y0018528D01*
X0061573Y0017549D01*
X0062853Y0017019D01*
X0064238Y0017019D01*
X0065517Y0017549D01*
X0066496Y0018528D01*
X0067026Y0019808D01*
X0067026Y0021192D01*
X0066496Y0022472D01*
X0065517Y0023451D01*
X0065345Y0023522D01*
X0065345Y0027246D01*
X0064291Y0028300D01*
X0060118Y0032473D01*
X0060545Y0033505D01*
X0060545Y0035495D01*
X0059784Y0037332D01*
X0058377Y0038739D01*
X0056540Y0039500D01*
X0054551Y0039500D01*
X0052713Y0038739D01*
X0051306Y0037332D01*
X0050545Y0035495D01*
X0050545Y0033505D01*
X0051306Y0031668D01*
X0052713Y0030261D01*
X0054551Y0029500D01*
X0056540Y0029500D01*
X0057572Y0029928D01*
X0061745Y0025754D01*
X0061745Y0023522D01*
X0061573Y0023451D01*
X0060594Y0022472D01*
X0060064Y0021192D01*
X0060064Y0019808D01*
X0060200Y0019479D02*
X0024095Y0019479D01*
X0024095Y0018481D02*
X0060641Y0018481D01*
X0061734Y0017482D02*
X0024095Y0017482D01*
X0024095Y0016484D02*
X0065733Y0016484D01*
X0065733Y0016862D02*
X0065733Y0015477D01*
X0066263Y0014197D01*
X0067242Y0013218D01*
X0068522Y0012688D01*
X0069907Y0012688D01*
X0071186Y0013218D01*
X0072166Y0014197D01*
X0072695Y0015477D01*
X0072695Y0016862D01*
X0072624Y0017034D01*
X0081291Y0025700D01*
X0082345Y0026754D01*
X0082345Y0027478D01*
X0082517Y0027549D01*
X0083496Y0028528D01*
X0084026Y0029808D01*
X0084026Y0031192D01*
X0083496Y0032472D01*
X0082517Y0033451D01*
X0081238Y0033981D01*
X0079853Y0033981D01*
X0078573Y0033451D01*
X0077594Y0032472D01*
X0077064Y0031192D01*
X0077064Y0029808D01*
X0077594Y0028528D01*
X0078311Y0027811D01*
X0070079Y0019579D01*
X0069907Y0019650D01*
X0068522Y0019650D01*
X0067242Y0019120D01*
X0066263Y0018141D01*
X0065733Y0016862D01*
X0065990Y0017482D02*
X0065356Y0017482D01*
X0066449Y0018481D02*
X0066603Y0018481D01*
X0066890Y0019479D02*
X0068109Y0019479D01*
X0067026Y0020478D02*
X0070977Y0020478D01*
X0071976Y0021476D02*
X0066909Y0021476D01*
X0066493Y0022475D02*
X0072974Y0022475D01*
X0073973Y0023473D02*
X0065464Y0023473D01*
X0065345Y0024472D02*
X0074971Y0024472D01*
X0075970Y0025470D02*
X0065345Y0025470D01*
X0065345Y0026469D02*
X0076968Y0026469D01*
X0077967Y0027467D02*
X0065123Y0027467D01*
X0064125Y0028466D02*
X0077656Y0028466D01*
X0077206Y0029464D02*
X0063126Y0029464D01*
X0062128Y0030463D02*
X0077064Y0030463D01*
X0077175Y0031461D02*
X0061129Y0031461D01*
X0060131Y0032460D02*
X0077589Y0032460D01*
X0078591Y0033458D02*
X0060526Y0033458D01*
X0060545Y0034457D02*
X0091612Y0034457D01*
X0091545Y0034295D02*
X0091545Y0032305D01*
X0092061Y0031060D01*
X0089444Y0028194D01*
X0088945Y0027696D01*
X0088945Y0027648D01*
X0088913Y0027613D01*
X0088945Y0026909D01*
X0088945Y0020703D01*
X0088773Y0020632D01*
X0087794Y0019653D01*
X0087264Y0018374D01*
X0087264Y0016989D01*
X0087794Y0015709D01*
X0088773Y0014730D01*
X0090053Y0014200D01*
X0091438Y0014200D01*
X0091545Y0014245D01*
X0091545Y0012305D01*
X0092306Y0010468D01*
X0093713Y0009061D01*
X0095551Y0008300D01*
X0097540Y0008300D01*
X0099377Y0009061D01*
X0100784Y0010468D01*
X0101468Y0012118D01*
X0101473Y0012082D01*
X0101726Y0011304D01*
X0102098Y0010575D01*
X0102579Y0009912D01*
X0103158Y0009334D01*
X0103820Y0008853D01*
X0104549Y0008481D01*
X0105327Y0008228D01*
X0106045Y0008114D01*
X0106045Y0012800D01*
X0107045Y0012800D01*
X0107045Y0008114D01*
X0107763Y0008228D01*
X0108541Y0008481D01*
X0109271Y0008853D01*
X0109933Y0009334D01*
X0110511Y0009912D01*
X0110993Y0010575D01*
X0111364Y0011304D01*
X0111617Y0012082D01*
X0111731Y0012800D01*
X0107045Y0012800D01*
X0107045Y0013800D01*
X0111731Y0013800D01*
X0111617Y0014518D01*
X0111364Y0015296D01*
X0110993Y0016025D01*
X0110511Y0016688D01*
X0109933Y0017266D01*
X0109271Y0017747D01*
X0108541Y0018119D01*
X0107763Y0018372D01*
X0107727Y0018378D01*
X0109377Y0019061D01*
X0110784Y0020468D01*
X0111545Y0022305D01*
X0111545Y0024295D01*
X0110784Y0026132D01*
X0109377Y0027539D01*
X0107540Y0028300D01*
X0109377Y0029061D01*
X0110784Y0030468D01*
X0111545Y0032305D01*
X0111545Y0034295D01*
X0110784Y0036132D01*
X0109377Y0037539D01*
X0107540Y0038300D01*
X0105551Y0038300D01*
X0103713Y0037539D01*
X0102306Y0036132D01*
X0101545Y0034295D01*
X0101545Y0032305D01*
X0102306Y0030468D01*
X0103713Y0029061D01*
X0105551Y0028300D01*
X0107540Y0028300D01*
X0105551Y0028300D01*
X0103713Y0027539D01*
X0102306Y0026132D01*
X0101545Y0024295D01*
X0100784Y0026132D01*
X0099377Y0027539D01*
X0097540Y0028300D01*
X0099377Y0029061D01*
X0100784Y0030468D01*
X0101545Y0032305D01*
X0101545Y0034295D01*
X0100784Y0036132D01*
X0099377Y0037539D01*
X0097540Y0038300D01*
X0095551Y0038300D01*
X0093713Y0037539D01*
X0092306Y0036132D01*
X0091545Y0034295D01*
X0092026Y0035455D02*
X0060545Y0035455D01*
X0060148Y0036454D02*
X0092628Y0036454D01*
X0093626Y0037452D02*
X0059664Y0037452D01*
X0058665Y0038451D02*
X0121885Y0038451D01*
X0122293Y0037452D02*
X0120239Y0037452D01*
X0121309Y0036454D02*
X0122345Y0036454D01*
X0122345Y0035455D02*
X0121932Y0035455D01*
X0122304Y0034457D02*
X0122345Y0034457D01*
X0117745Y0034457D02*
X0116745Y0034457D01*
X0116745Y0035455D02*
X0117745Y0035455D01*
X0117745Y0036454D02*
X0116745Y0036454D01*
X0116745Y0037452D02*
X0117745Y0037452D01*
X0114251Y0037452D02*
X0109464Y0037452D01*
X0110462Y0036454D02*
X0113182Y0036454D01*
X0112558Y0035455D02*
X0111064Y0035455D01*
X0111478Y0034457D02*
X0112186Y0034457D01*
X0111545Y0033458D02*
X0116745Y0033458D01*
X0112098Y0032460D02*
X0111545Y0032460D01*
X0111195Y0031461D02*
X0112342Y0031461D01*
X0112806Y0030463D02*
X0110779Y0030463D01*
X0109780Y0029464D02*
X0113627Y0029464D01*
X0115083Y0028466D02*
X0107940Y0028466D01*
X0109449Y0027467D02*
X0114482Y0027467D01*
X0113443Y0026469D02*
X0110447Y0026469D01*
X0111058Y0025470D02*
X0112774Y0025470D01*
X0112360Y0024472D02*
X0111472Y0024472D01*
X0111545Y0023473D02*
X0112245Y0023473D01*
X0112245Y0022475D02*
X0111545Y0022475D01*
X0111202Y0021476D02*
X0112547Y0021476D01*
X0112961Y0020478D02*
X0110788Y0020478D01*
X0109795Y0019479D02*
X0113895Y0019479D01*
X0115573Y0018481D02*
X0107976Y0018481D01*
X0109636Y0017482D02*
X0114518Y0017482D01*
X0113458Y0016484D02*
X0110660Y0016484D01*
X0111268Y0015485D02*
X0112780Y0015485D01*
X0112366Y0014487D02*
X0111622Y0014487D01*
X0112245Y0013488D02*
X0107045Y0013488D01*
X0107045Y0012490D02*
X0106045Y0012490D01*
X0106045Y0011491D02*
X0107045Y0011491D01*
X0107045Y0010493D02*
X0106045Y0010493D01*
X0106045Y0009494D02*
X0107045Y0009494D01*
X0107045Y0008496D02*
X0106045Y0008496D01*
X0104520Y0008496D02*
X0098012Y0008496D01*
X0099810Y0009494D02*
X0102997Y0009494D01*
X0102157Y0010493D02*
X0100794Y0010493D01*
X0101208Y0011491D02*
X0101665Y0011491D01*
X0101468Y0014482D02*
X0100784Y0016132D01*
X0099377Y0017539D01*
X0097540Y0018300D01*
X0099377Y0019061D01*
X0100784Y0020468D01*
X0101545Y0022305D01*
X0101545Y0024295D01*
X0101545Y0022305D01*
X0102306Y0020468D01*
X0103713Y0019061D01*
X0105363Y0018378D01*
X0105327Y0018372D01*
X0104549Y0018119D01*
X0103820Y0017747D01*
X0103158Y0017266D01*
X0102579Y0016688D01*
X0102098Y0016025D01*
X0101726Y0015296D01*
X0101473Y0014518D01*
X0101468Y0014482D01*
X0101466Y0014487D02*
X0101468Y0014487D01*
X0101822Y0015485D02*
X0101052Y0015485D01*
X0100433Y0016484D02*
X0102431Y0016484D01*
X0103455Y0017482D02*
X0099434Y0017482D01*
X0097976Y0018481D02*
X0105114Y0018481D01*
X0103295Y0019479D02*
X0099795Y0019479D01*
X0100788Y0020478D02*
X0102302Y0020478D01*
X0101889Y0021476D02*
X0101202Y0021476D01*
X0101545Y0022475D02*
X0101545Y0022475D01*
X0101545Y0023473D02*
X0101545Y0023473D01*
X0101472Y0024472D02*
X0101619Y0024472D01*
X0102032Y0025470D02*
X0101058Y0025470D01*
X0100447Y0026469D02*
X0102643Y0026469D01*
X0103641Y0027467D02*
X0099449Y0027467D01*
X0097940Y0028466D02*
X0105150Y0028466D01*
X0103310Y0029464D02*
X0099780Y0029464D01*
X0100779Y0030463D02*
X0102311Y0030463D01*
X0101895Y0031461D02*
X0101195Y0031461D01*
X0101545Y0032460D02*
X0101545Y0032460D01*
X0101545Y0033458D02*
X0101545Y0033458D01*
X0101478Y0034457D02*
X0101612Y0034457D01*
X0102026Y0035455D02*
X0101064Y0035455D01*
X0100462Y0036454D02*
X0102628Y0036454D01*
X0103626Y0037452D02*
X0099464Y0037452D01*
X0096545Y0033300D02*
X0090745Y0026950D01*
X0090745Y0017681D01*
X0094226Y0017751D02*
X0094226Y0018374D01*
X0093989Y0018947D01*
X0095551Y0018300D01*
X0097540Y0018300D01*
X0095551Y0018300D01*
X0094226Y0017751D01*
X0094182Y0018481D02*
X0095114Y0018481D01*
X0088619Y0020478D02*
X0076068Y0020478D01*
X0075070Y0019479D02*
X0087722Y0019479D01*
X0087308Y0018481D02*
X0074071Y0018481D01*
X0073073Y0017482D02*
X0087264Y0017482D01*
X0087473Y0016484D02*
X0072695Y0016484D01*
X0072695Y0015485D02*
X0088018Y0015485D01*
X0089361Y0014487D02*
X0072285Y0014487D01*
X0071456Y0013488D02*
X0091545Y0013488D01*
X0091545Y0012490D02*
X0024095Y0012490D01*
X0024095Y0013488D02*
X0066973Y0013488D01*
X0066143Y0014487D02*
X0024095Y0014487D01*
X0024095Y0015485D02*
X0065733Y0015485D01*
X0069214Y0016169D02*
X0080545Y0027500D01*
X0080545Y0030500D01*
X0084026Y0030463D02*
X0091516Y0030463D01*
X0090604Y0029464D02*
X0083884Y0029464D01*
X0083434Y0028466D02*
X0089692Y0028466D01*
X0088920Y0027467D02*
X0082345Y0027467D01*
X0082059Y0026469D02*
X0088945Y0026469D01*
X0088945Y0025470D02*
X0081061Y0025470D01*
X0080062Y0024472D02*
X0088945Y0024472D01*
X0088945Y0023473D02*
X0079064Y0023473D01*
X0078065Y0022475D02*
X0088945Y0022475D01*
X0088945Y0021476D02*
X0077067Y0021476D01*
X0063545Y0020500D02*
X0063545Y0026500D01*
X0055545Y0034500D01*
X0050545Y0034457D02*
X0034045Y0034457D01*
X0034045Y0035455D02*
X0050545Y0035455D01*
X0050942Y0036454D02*
X0034041Y0036454D01*
X0033628Y0037452D02*
X0051426Y0037452D01*
X0052425Y0038451D02*
X0033115Y0038451D01*
X0032117Y0039449D02*
X0054428Y0039449D01*
X0056662Y0039449D02*
X0120590Y0039449D01*
X0122148Y0031461D02*
X0122345Y0031461D01*
X0122345Y0030463D02*
X0121684Y0030463D01*
X0122345Y0029464D02*
X0120863Y0029464D01*
X0119408Y0028466D02*
X0122345Y0028466D01*
X0122345Y0027467D02*
X0120009Y0027467D01*
X0121047Y0026469D02*
X0122345Y0026469D01*
X0122345Y0025470D02*
X0121717Y0025470D01*
X0122130Y0024472D02*
X0122345Y0024472D01*
X0122345Y0023473D02*
X0122245Y0023473D01*
X0122245Y0022475D02*
X0122345Y0022475D01*
X0122345Y0021476D02*
X0121943Y0021476D01*
X0122345Y0020478D02*
X0121529Y0020478D01*
X0122345Y0019479D02*
X0120595Y0019479D01*
X0118917Y0018481D02*
X0122345Y0018481D01*
X0122345Y0017482D02*
X0119973Y0017482D01*
X0121033Y0016484D02*
X0122345Y0016484D01*
X0122345Y0015485D02*
X0121711Y0015485D01*
X0122124Y0014487D02*
X0122345Y0014487D01*
X0122345Y0013488D02*
X0122245Y0013488D01*
X0122245Y0012490D02*
X0122345Y0012490D01*
X0122345Y0011491D02*
X0121949Y0011491D01*
X0122345Y0010493D02*
X0121536Y0010493D01*
X0122345Y0009494D02*
X0120610Y0009494D01*
X0122114Y0008496D02*
X0118953Y0008496D01*
X0121363Y0007497D02*
X0024095Y0007497D01*
X0024095Y0008496D02*
X0095079Y0008496D01*
X0093280Y0009494D02*
X0024095Y0009494D01*
X0024095Y0010493D02*
X0092296Y0010493D01*
X0091882Y0011491D02*
X0024095Y0011491D01*
X0028545Y0021476D02*
X0029545Y0021476D01*
X0029545Y0022475D02*
X0028545Y0022475D01*
X0028545Y0023473D02*
X0029545Y0023473D01*
X0029545Y0024472D02*
X0028545Y0024472D01*
X0029545Y0025470D02*
X0061745Y0025470D01*
X0061745Y0024472D02*
X0034155Y0024472D01*
X0033870Y0023473D02*
X0061627Y0023473D01*
X0060597Y0022475D02*
X0033311Y0022475D01*
X0032422Y0021476D02*
X0060182Y0021476D01*
X0061031Y0026469D02*
X0034149Y0026469D01*
X0033853Y0027467D02*
X0060032Y0027467D01*
X0059034Y0028466D02*
X0033282Y0028466D01*
X0032367Y0029464D02*
X0058035Y0029464D01*
X0052511Y0030463D02*
X0030445Y0030463D01*
X0032127Y0031461D02*
X0051513Y0031461D01*
X0050978Y0032460D02*
X0033126Y0032460D01*
X0033632Y0033458D02*
X0050565Y0033458D01*
X0082500Y0033458D02*
X0091545Y0033458D01*
X0091545Y0032460D02*
X0083501Y0032460D01*
X0083915Y0031461D02*
X0091895Y0031461D01*
X0094727Y0028641D02*
X0095551Y0028300D01*
X0097540Y0028300D01*
X0095551Y0028300D01*
X0093726Y0027544D01*
X0094727Y0028641D01*
X0094567Y0028466D02*
X0095150Y0028466D01*
X0111682Y0012490D02*
X0112245Y0012490D01*
X0112541Y0011491D02*
X0111425Y0011491D01*
X0110933Y0010493D02*
X0112955Y0010493D01*
X0113880Y0009494D02*
X0110093Y0009494D01*
X0108570Y0008496D02*
X0115537Y0008496D01*
M02*
