G75*
%MOIN*%
%OFA0B0*%
%FSLAX25Y25*%
%IPPOS*%
%LPD*%
%AMOC8*
5,1,8,0,0,1.08239X$1,22.5*
%
%ADD10R,0.03543X0.03543*%
%ADD11R,0.10000X0.02400*%
%ADD12C,0.07400*%
%ADD13R,0.03937X0.03543*%
%ADD14R,0.04724X0.05118*%
%ADD15C,0.01000*%
%ADD16C,0.04362*%
%ADD17C,0.01200*%
%ADD18C,0.00800*%
D10*
X0028895Y0010197D03*
X0028895Y0016103D03*
X0080592Y0035450D03*
X0086498Y0035450D03*
D11*
X0082845Y0025500D03*
X0082845Y0020500D03*
X0082845Y0015500D03*
X0082845Y0010500D03*
X0055045Y0010500D03*
X0055045Y0015500D03*
X0055045Y0020500D03*
X0055045Y0025500D03*
D12*
X0055545Y0034500D03*
X0029045Y0035450D03*
X0029045Y0025450D03*
X0096545Y0023300D03*
X0106545Y0023300D03*
X0117245Y0023200D03*
X0117245Y0013200D03*
X0106545Y0013300D03*
X0096545Y0013300D03*
X0096545Y0033300D03*
X0106545Y0033300D03*
X0117245Y0033200D03*
D13*
X0045045Y0026221D03*
X0038746Y0026221D03*
X0038746Y0010079D03*
X0045045Y0010079D03*
D14*
X0065095Y0034550D03*
X0073095Y0034550D03*
X0046419Y0035400D03*
X0038419Y0035400D03*
D15*
X0038746Y0026221D02*
X0041817Y0023149D01*
X0047552Y0023149D01*
X0049903Y0025500D01*
X0055045Y0025500D01*
X0064807Y0025500D01*
X0077307Y0013000D01*
X0096395Y0013000D01*
X0096545Y0013300D01*
X0090745Y0017681D02*
X0088564Y0015500D01*
X0082845Y0015500D01*
X0082845Y0010500D02*
X0074884Y0010500D01*
X0069214Y0016169D01*
X0063545Y0020500D02*
X0055045Y0020500D01*
X0038746Y0026221D02*
X0038746Y0010079D01*
X0029013Y0010079D01*
X0028895Y0010197D01*
X0080545Y0030500D02*
X0080545Y0035403D01*
X0080592Y0035450D01*
X0086498Y0035450D02*
X0086498Y0032450D01*
X0090648Y0028300D01*
X0111645Y0028300D01*
X0117245Y0023200D01*
X0096545Y0023300D02*
X0091345Y0023300D01*
X0088545Y0020500D01*
X0082845Y0020500D01*
D16*
X0090745Y0017681D03*
X0069545Y0010500D03*
X0069214Y0016169D03*
X0063545Y0020500D03*
X0080545Y0030500D03*
D17*
X0065095Y0034550D02*
X0059045Y0028500D01*
X0053319Y0028500D01*
X0046419Y0035400D01*
X0046419Y0027595D01*
X0045045Y0026221D01*
X0044466Y0026221D01*
X0041294Y0029393D01*
X0032988Y0029393D01*
X0029045Y0025450D01*
X0045045Y0010079D02*
X0052124Y0010079D01*
X0052545Y0010500D01*
X0055045Y0010500D01*
X0069545Y0010500D01*
D18*
X0023995Y0006900D02*
X0023995Y0034733D01*
X0024071Y0034256D01*
X0024319Y0033492D01*
X0024683Y0032777D01*
X0025155Y0032128D01*
X0025723Y0031560D01*
X0026372Y0031088D01*
X0027087Y0030724D01*
X0027851Y0030476D01*
X0028644Y0030350D01*
X0028645Y0030350D01*
X0028645Y0035050D01*
X0029445Y0035050D01*
X0029445Y0030350D01*
X0029447Y0030350D01*
X0030239Y0030476D01*
X0031003Y0030724D01*
X0031718Y0031088D01*
X0032368Y0031560D01*
X0032935Y0032128D01*
X0033407Y0032777D01*
X0033771Y0033492D01*
X0034020Y0034256D01*
X0034145Y0035049D01*
X0034145Y0035050D01*
X0029445Y0035050D01*
X0029445Y0035850D01*
X0034145Y0035850D01*
X0034145Y0035851D01*
X0034020Y0036644D01*
X0033771Y0037408D01*
X0033407Y0038123D01*
X0032935Y0038772D01*
X0032368Y0039340D01*
X0031734Y0039800D01*
X0119572Y0039800D01*
X0120133Y0039745D01*
X0121168Y0039316D01*
X0121961Y0038523D01*
X0122390Y0037488D01*
X0122445Y0036927D01*
X0122445Y0009412D01*
X0122397Y0008922D01*
X0122022Y0008017D01*
X0121329Y0007323D01*
X0120423Y0006948D01*
X0119933Y0006900D01*
X0099337Y0006900D01*
X0100175Y0007737D01*
X0102108Y0009670D01*
X0102677Y0010239D01*
X0103770Y0009146D01*
X0105570Y0008400D01*
X0107520Y0008400D01*
X0109321Y0009146D01*
X0110699Y0010524D01*
X0111445Y0012325D01*
X0111445Y0014275D01*
X0110699Y0016076D01*
X0109321Y0017454D01*
X0107520Y0018200D01*
X0105570Y0018200D01*
X0103770Y0017454D01*
X0103045Y0016730D01*
X0103045Y0017537D01*
X0104395Y0018887D01*
X0105570Y0018400D01*
X0107520Y0018400D01*
X0109321Y0019146D01*
X0110699Y0020524D01*
X0111445Y0022325D01*
X0111445Y0024275D01*
X0110699Y0026076D01*
X0110175Y0026600D01*
X0110987Y0026600D01*
X0112703Y0025038D01*
X0112345Y0024175D01*
X0112345Y0022225D01*
X0113091Y0020424D01*
X0114470Y0019046D01*
X0116270Y0018300D01*
X0118220Y0018300D01*
X0120021Y0019046D01*
X0121399Y0020424D01*
X0122145Y0022225D01*
X0122145Y0024175D01*
X0121399Y0025976D01*
X0120021Y0027354D01*
X0118220Y0028100D01*
X0116270Y0028100D01*
X0114978Y0027564D01*
X0112819Y0029530D01*
X0112349Y0030000D01*
X0112303Y0030000D01*
X0112269Y0030031D01*
X0111605Y0030000D01*
X0110451Y0030000D01*
X0110907Y0030627D01*
X0111271Y0031342D01*
X0111520Y0032106D01*
X0111645Y0032899D01*
X0111645Y0032900D01*
X0106945Y0032900D01*
X0106945Y0033700D01*
X0106145Y0033700D01*
X0106145Y0032900D01*
X0101445Y0032900D01*
X0101445Y0032899D01*
X0101571Y0032106D01*
X0101819Y0031342D01*
X0102183Y0030627D01*
X0102639Y0030000D01*
X0100175Y0030000D01*
X0100699Y0030524D01*
X0101445Y0032325D01*
X0101445Y0034275D01*
X0100699Y0036076D01*
X0099321Y0037454D01*
X0097520Y0038200D01*
X0095570Y0038200D01*
X0093770Y0037454D01*
X0092391Y0036076D01*
X0091645Y0034275D01*
X0091645Y0032325D01*
X0092391Y0030524D01*
X0092916Y0030000D01*
X0091352Y0030000D01*
X0088820Y0032532D01*
X0089470Y0033181D01*
X0089470Y0037719D01*
X0088767Y0038422D01*
X0084229Y0038422D01*
X0083545Y0037738D01*
X0082861Y0038422D01*
X0078324Y0038422D01*
X0077621Y0037719D01*
X0077621Y0033181D01*
X0078033Y0032769D01*
X0077679Y0032415D01*
X0077164Y0031173D01*
X0077164Y0029827D01*
X0077679Y0028585D01*
X0078164Y0028100D01*
X0077661Y0028100D01*
X0077305Y0028005D01*
X0076986Y0027820D01*
X0076725Y0027560D01*
X0076541Y0027240D01*
X0076445Y0026884D01*
X0076445Y0025700D01*
X0082645Y0025700D01*
X0082645Y0025300D01*
X0076445Y0025300D01*
X0076445Y0024116D01*
X0076541Y0023760D01*
X0076725Y0023440D01*
X0076986Y0023180D01*
X0077305Y0022995D01*
X0077661Y0022900D01*
X0082645Y0022900D01*
X0082645Y0025300D01*
X0083045Y0025300D01*
X0083045Y0022900D01*
X0088029Y0022900D01*
X0088386Y0022995D01*
X0088705Y0023180D01*
X0088965Y0023440D01*
X0089150Y0023760D01*
X0089245Y0024116D01*
X0089245Y0025300D01*
X0083045Y0025300D01*
X0083045Y0025700D01*
X0082645Y0025700D01*
X0082645Y0027818D01*
X0083411Y0028585D01*
X0083926Y0029827D01*
X0083926Y0031173D01*
X0083411Y0032415D01*
X0083105Y0032722D01*
X0083545Y0033162D01*
X0084229Y0032478D01*
X0084798Y0032478D01*
X0084798Y0031746D01*
X0089944Y0026600D01*
X0092916Y0026600D01*
X0092391Y0026076D01*
X0091946Y0025000D01*
X0090641Y0025000D01*
X0088442Y0022801D01*
X0088342Y0022900D01*
X0077348Y0022900D01*
X0076645Y0022197D01*
X0076645Y0018803D01*
X0077348Y0018100D01*
X0087364Y0018100D01*
X0087364Y0017900D01*
X0077348Y0017900D01*
X0076645Y0017197D01*
X0076645Y0016066D01*
X0065511Y0027200D01*
X0061242Y0027200D01*
X0060766Y0027676D01*
X0060845Y0027754D01*
X0060845Y0027754D01*
X0063882Y0030791D01*
X0067954Y0030791D01*
X0068657Y0031494D01*
X0068657Y0037606D01*
X0067954Y0038309D01*
X0062236Y0038309D01*
X0061533Y0037606D01*
X0061533Y0033533D01*
X0058300Y0030300D01*
X0058210Y0030300D01*
X0058321Y0030346D01*
X0059699Y0031724D01*
X0060445Y0033525D01*
X0060445Y0035475D01*
X0059699Y0037276D01*
X0058321Y0038654D01*
X0056520Y0039400D01*
X0054570Y0039400D01*
X0052770Y0038654D01*
X0051391Y0037276D01*
X0050645Y0035475D01*
X0050645Y0033720D01*
X0049981Y0034383D01*
X0049981Y0038456D01*
X0049278Y0039159D01*
X0043560Y0039159D01*
X0042857Y0038456D01*
X0042857Y0032344D01*
X0043560Y0031641D01*
X0044619Y0031641D01*
X0044619Y0029193D01*
X0044040Y0029193D01*
X0043094Y0030138D01*
X0042040Y0031193D01*
X0032242Y0031193D01*
X0030995Y0029946D01*
X0030020Y0030350D01*
X0028070Y0030350D01*
X0026270Y0029604D01*
X0024891Y0028226D01*
X0024145Y0026425D01*
X0024145Y0024475D01*
X0024891Y0022674D01*
X0026270Y0021296D01*
X0028070Y0020550D01*
X0030020Y0020550D01*
X0031821Y0021296D01*
X0033199Y0022674D01*
X0033945Y0024475D01*
X0033945Y0026425D01*
X0033541Y0027400D01*
X0033733Y0027593D01*
X0035577Y0027593D01*
X0035577Y0023952D01*
X0036280Y0023249D01*
X0037046Y0023249D01*
X0037046Y0013051D01*
X0036280Y0013051D01*
X0035577Y0012348D01*
X0035577Y0011779D01*
X0031867Y0011779D01*
X0031867Y0012466D01*
X0031270Y0013063D01*
X0031526Y0013211D01*
X0031787Y0013471D01*
X0031971Y0013791D01*
X0032067Y0014147D01*
X0032067Y0015703D01*
X0029295Y0015703D01*
X0029295Y0016503D01*
X0028495Y0016503D01*
X0028495Y0019274D01*
X0026939Y0019274D01*
X0026583Y0019179D01*
X0026264Y0018995D01*
X0026003Y0018734D01*
X0025819Y0018415D01*
X0025723Y0018059D01*
X0025723Y0016503D01*
X0028495Y0016503D01*
X0028495Y0015703D01*
X0025723Y0015703D01*
X0025723Y0014147D01*
X0025819Y0013791D01*
X0026003Y0013471D01*
X0026264Y0013211D01*
X0026520Y0013063D01*
X0025923Y0012466D01*
X0025923Y0007929D01*
X0026626Y0007226D01*
X0031164Y0007226D01*
X0031867Y0007929D01*
X0031867Y0008379D01*
X0035577Y0008379D01*
X0035577Y0007810D01*
X0036280Y0007107D01*
X0041211Y0007107D01*
X0041895Y0007792D01*
X0042579Y0007107D01*
X0047510Y0007107D01*
X0048213Y0007810D01*
X0048213Y0008279D01*
X0049369Y0008279D01*
X0049548Y0008100D01*
X0060542Y0008100D01*
X0061142Y0008700D01*
X0066631Y0008700D01*
X0066679Y0008585D01*
X0067630Y0007634D01*
X0068873Y0007119D01*
X0070218Y0007119D01*
X0071460Y0007634D01*
X0072411Y0008585D01*
X0072926Y0009827D01*
X0072926Y0010053D01*
X0074179Y0008800D01*
X0076648Y0008800D01*
X0077348Y0008100D01*
X0088342Y0008100D01*
X0089045Y0008803D01*
X0089045Y0008900D01*
X0091753Y0008900D01*
X0093753Y0006900D01*
X0023995Y0006900D01*
X0023995Y0007097D02*
X0093556Y0007097D01*
X0092757Y0007896D02*
X0071722Y0007896D01*
X0072457Y0008694D02*
X0076754Y0008694D01*
X0073487Y0009493D02*
X0072788Y0009493D01*
X0067368Y0007896D02*
X0048213Y0007896D01*
X0037046Y0013485D02*
X0031795Y0013485D01*
X0031646Y0012687D02*
X0035916Y0012687D01*
X0035577Y0011888D02*
X0031867Y0011888D01*
X0032067Y0014284D02*
X0037046Y0014284D01*
X0037046Y0015082D02*
X0032067Y0015082D01*
X0032067Y0016503D02*
X0029295Y0016503D01*
X0029295Y0019274D01*
X0030851Y0019274D01*
X0031207Y0019179D01*
X0031526Y0018995D01*
X0031787Y0018734D01*
X0031971Y0018415D01*
X0032067Y0018059D01*
X0032067Y0016503D01*
X0032067Y0016679D02*
X0037046Y0016679D01*
X0037046Y0015881D02*
X0029295Y0015881D01*
X0029295Y0016679D02*
X0028495Y0016679D01*
X0028495Y0015881D02*
X0023995Y0015881D01*
X0023995Y0016679D02*
X0025723Y0016679D01*
X0025723Y0017478D02*
X0023995Y0017478D01*
X0023995Y0018276D02*
X0025782Y0018276D01*
X0026402Y0019075D02*
X0023995Y0019075D01*
X0023995Y0019873D02*
X0037046Y0019873D01*
X0037046Y0019075D02*
X0031388Y0019075D01*
X0032009Y0018276D02*
X0037046Y0018276D01*
X0037046Y0017478D02*
X0032067Y0017478D01*
X0029295Y0017478D02*
X0028495Y0017478D01*
X0028495Y0018276D02*
X0029295Y0018276D01*
X0029295Y0019075D02*
X0028495Y0019075D01*
X0027777Y0020672D02*
X0023995Y0020672D01*
X0023995Y0021470D02*
X0026095Y0021470D01*
X0025297Y0022269D02*
X0023995Y0022269D01*
X0023995Y0023067D02*
X0024728Y0023067D01*
X0024398Y0023866D02*
X0023995Y0023866D01*
X0023995Y0024664D02*
X0024145Y0024664D01*
X0024145Y0025463D02*
X0023995Y0025463D01*
X0023995Y0026261D02*
X0024145Y0026261D01*
X0023995Y0027060D02*
X0024408Y0027060D01*
X0024739Y0027858D02*
X0023995Y0027858D01*
X0023995Y0028657D02*
X0025322Y0028657D01*
X0026121Y0029455D02*
X0023995Y0029455D01*
X0023995Y0030254D02*
X0027838Y0030254D01*
X0028645Y0031052D02*
X0029445Y0031052D01*
X0030252Y0030254D02*
X0031303Y0030254D01*
X0031648Y0031052D02*
X0032102Y0031052D01*
X0032658Y0031851D02*
X0035067Y0031851D01*
X0034937Y0031981D02*
X0035197Y0031721D01*
X0035517Y0031536D01*
X0035873Y0031441D01*
X0038019Y0031441D01*
X0038019Y0035000D01*
X0034657Y0035000D01*
X0034657Y0032657D01*
X0034752Y0032301D01*
X0034937Y0031981D01*
X0034659Y0032649D02*
X0033314Y0032649D01*
X0033749Y0033448D02*
X0034657Y0033448D01*
X0034657Y0034246D02*
X0034017Y0034246D01*
X0034145Y0035045D02*
X0038019Y0035045D01*
X0038019Y0035000D02*
X0038019Y0035800D01*
X0034657Y0035800D01*
X0034657Y0038143D01*
X0034752Y0038499D01*
X0034937Y0038819D01*
X0035197Y0039079D01*
X0035517Y0039264D01*
X0035873Y0039359D01*
X0038019Y0039359D01*
X0038019Y0035800D01*
X0038819Y0035800D01*
X0038819Y0039359D01*
X0040966Y0039359D01*
X0041322Y0039264D01*
X0041641Y0039079D01*
X0041902Y0038819D01*
X0042086Y0038499D01*
X0042181Y0038143D01*
X0042181Y0035800D01*
X0038819Y0035800D01*
X0038819Y0035000D01*
X0038819Y0031441D01*
X0040966Y0031441D01*
X0041322Y0031536D01*
X0041641Y0031721D01*
X0041902Y0031981D01*
X0042086Y0032301D01*
X0042181Y0032657D01*
X0042181Y0035000D01*
X0038819Y0035000D01*
X0038019Y0035000D01*
X0038819Y0035045D02*
X0042857Y0035045D01*
X0042857Y0035843D02*
X0042181Y0035843D01*
X0042181Y0036642D02*
X0042857Y0036642D01*
X0042857Y0037440D02*
X0042181Y0037440D01*
X0042156Y0038239D02*
X0042857Y0038239D01*
X0043438Y0039037D02*
X0041683Y0039037D01*
X0038819Y0039037D02*
X0038019Y0039037D01*
X0038019Y0038239D02*
X0038819Y0038239D01*
X0038819Y0037440D02*
X0038019Y0037440D01*
X0038019Y0036642D02*
X0038819Y0036642D01*
X0038819Y0035843D02*
X0038019Y0035843D01*
X0038019Y0034246D02*
X0038819Y0034246D01*
X0038819Y0033448D02*
X0038019Y0033448D01*
X0038019Y0032649D02*
X0038819Y0032649D01*
X0038819Y0031851D02*
X0038019Y0031851D01*
X0041771Y0031851D02*
X0043350Y0031851D01*
X0042857Y0032649D02*
X0042179Y0032649D01*
X0042181Y0033448D02*
X0042857Y0033448D01*
X0042857Y0034246D02*
X0042181Y0034246D01*
X0042180Y0031052D02*
X0044619Y0031052D01*
X0044619Y0030254D02*
X0042978Y0030254D01*
X0043777Y0029455D02*
X0044619Y0029455D01*
X0050118Y0034246D02*
X0050645Y0034246D01*
X0050645Y0035045D02*
X0049981Y0035045D01*
X0049981Y0035843D02*
X0050798Y0035843D01*
X0051129Y0036642D02*
X0049981Y0036642D01*
X0049981Y0037440D02*
X0051556Y0037440D01*
X0052354Y0038239D02*
X0049981Y0038239D01*
X0049400Y0039037D02*
X0053695Y0039037D01*
X0057395Y0039037D02*
X0121447Y0039037D01*
X0122079Y0038239D02*
X0107848Y0038239D01*
X0107739Y0038274D02*
X0106947Y0038400D01*
X0106945Y0038400D01*
X0106945Y0033700D01*
X0111645Y0033700D01*
X0111645Y0033701D01*
X0111520Y0034494D01*
X0111271Y0035258D01*
X0110907Y0035973D01*
X0110435Y0036622D01*
X0109868Y0037190D01*
X0109218Y0037662D01*
X0108503Y0038026D01*
X0107739Y0038274D01*
X0106945Y0038239D02*
X0106145Y0038239D01*
X0106144Y0038400D02*
X0105351Y0038274D01*
X0104587Y0038026D01*
X0103872Y0037662D01*
X0103223Y0037190D01*
X0102655Y0036622D01*
X0102183Y0035973D01*
X0101819Y0035258D01*
X0101571Y0034494D01*
X0101445Y0033701D01*
X0101445Y0033700D01*
X0106145Y0033700D01*
X0106145Y0038400D01*
X0106144Y0038400D01*
X0105242Y0038239D02*
X0088949Y0038239D01*
X0089470Y0037440D02*
X0093756Y0037440D01*
X0092957Y0036642D02*
X0089470Y0036642D01*
X0089470Y0035843D02*
X0092295Y0035843D01*
X0091964Y0035045D02*
X0089470Y0035045D01*
X0089470Y0034246D02*
X0091645Y0034246D01*
X0091645Y0033448D02*
X0089470Y0033448D01*
X0088938Y0032649D02*
X0091645Y0032649D01*
X0091842Y0031851D02*
X0089501Y0031851D01*
X0090300Y0031052D02*
X0092172Y0031052D01*
X0092662Y0030254D02*
X0091098Y0030254D01*
X0087887Y0028657D02*
X0083441Y0028657D01*
X0083045Y0028100D02*
X0083045Y0025700D01*
X0089245Y0025700D01*
X0089245Y0026884D01*
X0089150Y0027240D01*
X0088965Y0027560D01*
X0088705Y0027820D01*
X0088386Y0028005D01*
X0088029Y0028100D01*
X0083045Y0028100D01*
X0083045Y0027858D02*
X0082685Y0027858D01*
X0082645Y0027060D02*
X0083045Y0027060D01*
X0083045Y0026261D02*
X0082645Y0026261D01*
X0082645Y0025463D02*
X0067248Y0025463D01*
X0068047Y0024664D02*
X0076445Y0024664D01*
X0076512Y0023866D02*
X0068845Y0023866D01*
X0069644Y0023067D02*
X0077180Y0023067D01*
X0076717Y0022269D02*
X0070442Y0022269D01*
X0071241Y0021470D02*
X0076645Y0021470D01*
X0076645Y0020672D02*
X0072039Y0020672D01*
X0072838Y0019873D02*
X0076645Y0019873D01*
X0076645Y0019075D02*
X0073636Y0019075D01*
X0074435Y0018276D02*
X0077172Y0018276D01*
X0076926Y0017478D02*
X0075233Y0017478D01*
X0076032Y0016679D02*
X0076645Y0016679D01*
X0082845Y0010500D02*
X0088545Y0010500D01*
X0092415Y0010500D01*
X0094515Y0008400D01*
X0098575Y0008400D01*
X0101445Y0011270D01*
X0101445Y0018200D01*
X0106545Y0023300D01*
X0111091Y0021470D02*
X0112658Y0021470D01*
X0112345Y0022269D02*
X0111422Y0022269D01*
X0111445Y0023067D02*
X0112345Y0023067D01*
X0112345Y0023866D02*
X0111445Y0023866D01*
X0111284Y0024664D02*
X0112548Y0024664D01*
X0112236Y0025463D02*
X0110953Y0025463D01*
X0111359Y0026261D02*
X0110513Y0026261D01*
X0114655Y0027858D02*
X0115687Y0027858D01*
X0116270Y0028300D02*
X0118220Y0028300D01*
X0120021Y0029046D01*
X0121399Y0030424D01*
X0122145Y0032225D01*
X0122145Y0034175D01*
X0121399Y0035976D01*
X0120021Y0037354D01*
X0118220Y0038100D01*
X0116270Y0038100D01*
X0114470Y0037354D01*
X0113091Y0035976D01*
X0112345Y0034175D01*
X0112345Y0032225D01*
X0113091Y0030424D01*
X0114470Y0029046D01*
X0116270Y0028300D01*
X0115409Y0028657D02*
X0113778Y0028657D01*
X0114060Y0029455D02*
X0112901Y0029455D01*
X0113262Y0030254D02*
X0110636Y0030254D01*
X0111124Y0031052D02*
X0112831Y0031052D01*
X0112500Y0031851D02*
X0111437Y0031851D01*
X0111606Y0032649D02*
X0112345Y0032649D01*
X0112345Y0033448D02*
X0106945Y0033448D01*
X0106945Y0034246D02*
X0106145Y0034246D01*
X0106145Y0033448D02*
X0101445Y0033448D01*
X0101445Y0034246D02*
X0101531Y0034246D01*
X0101750Y0035045D02*
X0101126Y0035045D01*
X0100795Y0035843D02*
X0102117Y0035843D01*
X0102675Y0036642D02*
X0100133Y0036642D01*
X0099334Y0037440D02*
X0103567Y0037440D01*
X0106145Y0037440D02*
X0106945Y0037440D01*
X0106945Y0036642D02*
X0106145Y0036642D01*
X0106145Y0035843D02*
X0106945Y0035843D01*
X0106945Y0035045D02*
X0106145Y0035045D01*
X0109523Y0037440D02*
X0114678Y0037440D01*
X0113757Y0036642D02*
X0110416Y0036642D01*
X0110973Y0035843D02*
X0113036Y0035843D01*
X0112706Y0035045D02*
X0111341Y0035045D01*
X0111559Y0034246D02*
X0112375Y0034246D01*
X0119812Y0037440D02*
X0122395Y0037440D01*
X0122445Y0036642D02*
X0120733Y0036642D01*
X0121454Y0035843D02*
X0122445Y0035843D01*
X0122445Y0035045D02*
X0121785Y0035045D01*
X0122115Y0034246D02*
X0122445Y0034246D01*
X0122445Y0033448D02*
X0122145Y0033448D01*
X0122145Y0032649D02*
X0122445Y0032649D01*
X0122445Y0031851D02*
X0121990Y0031851D01*
X0121659Y0031052D02*
X0122445Y0031052D01*
X0122445Y0030254D02*
X0121229Y0030254D01*
X0120430Y0029455D02*
X0122445Y0029455D01*
X0122445Y0028657D02*
X0119081Y0028657D01*
X0118803Y0027858D02*
X0122445Y0027858D01*
X0122445Y0027060D02*
X0120315Y0027060D01*
X0121113Y0026261D02*
X0122445Y0026261D01*
X0122445Y0025463D02*
X0121612Y0025463D01*
X0121942Y0024664D02*
X0122445Y0024664D01*
X0122445Y0023866D02*
X0122145Y0023866D01*
X0122145Y0023067D02*
X0122445Y0023067D01*
X0122445Y0022269D02*
X0122145Y0022269D01*
X0122445Y0021470D02*
X0121832Y0021470D01*
X0121502Y0020672D02*
X0122445Y0020672D01*
X0122445Y0019873D02*
X0120848Y0019873D01*
X0120049Y0019075D02*
X0122445Y0019075D01*
X0122445Y0018276D02*
X0117797Y0018276D01*
X0117645Y0018276D02*
X0116845Y0018276D01*
X0116845Y0018300D02*
X0116844Y0018300D01*
X0116051Y0018174D01*
X0115287Y0017926D01*
X0114572Y0017562D01*
X0113923Y0017090D01*
X0113355Y0016522D01*
X0112883Y0015873D01*
X0112519Y0015158D01*
X0112271Y0014394D01*
X0112145Y0013601D01*
X0112145Y0013600D01*
X0116845Y0013600D01*
X0116845Y0012800D01*
X0112145Y0012800D01*
X0112145Y0012799D01*
X0112271Y0012006D01*
X0112519Y0011242D01*
X0112883Y0010527D01*
X0113355Y0009878D01*
X0113923Y0009310D01*
X0114572Y0008838D01*
X0115287Y0008474D01*
X0116051Y0008226D01*
X0116844Y0008100D01*
X0116845Y0008100D01*
X0116845Y0012800D01*
X0117645Y0012800D01*
X0117645Y0008100D01*
X0117647Y0008100D01*
X0118439Y0008226D01*
X0119203Y0008474D01*
X0119918Y0008838D01*
X0120568Y0009310D01*
X0121135Y0009878D01*
X0121607Y0010527D01*
X0121971Y0011242D01*
X0122220Y0012006D01*
X0122345Y0012799D01*
X0122345Y0012800D01*
X0117645Y0012800D01*
X0117645Y0013600D01*
X0116845Y0013600D01*
X0116845Y0018300D01*
X0116693Y0018276D02*
X0103784Y0018276D01*
X0103827Y0017478D02*
X0103045Y0017478D01*
X0109264Y0017478D02*
X0114456Y0017478D01*
X0113512Y0016679D02*
X0110096Y0016679D01*
X0110780Y0015881D02*
X0112889Y0015881D01*
X0112494Y0015082D02*
X0111111Y0015082D01*
X0111441Y0014284D02*
X0112253Y0014284D01*
X0111445Y0013485D02*
X0116845Y0013485D01*
X0116845Y0012687D02*
X0117645Y0012687D01*
X0117645Y0013485D02*
X0122445Y0013485D01*
X0122345Y0013600D02*
X0122345Y0013601D01*
X0122220Y0014394D01*
X0121971Y0015158D01*
X0121607Y0015873D01*
X0121135Y0016522D01*
X0120568Y0017090D01*
X0119918Y0017562D01*
X0119203Y0017926D01*
X0118439Y0018174D01*
X0117647Y0018300D01*
X0117645Y0018300D01*
X0117645Y0013600D01*
X0122345Y0013600D01*
X0122445Y0014284D02*
X0122237Y0014284D01*
X0122445Y0015082D02*
X0121996Y0015082D01*
X0121601Y0015881D02*
X0122445Y0015881D01*
X0122445Y0016679D02*
X0120978Y0016679D01*
X0120034Y0017478D02*
X0122445Y0017478D01*
X0117645Y0017478D02*
X0116845Y0017478D01*
X0116845Y0016679D02*
X0117645Y0016679D01*
X0117645Y0015881D02*
X0116845Y0015881D01*
X0116845Y0015082D02*
X0117645Y0015082D01*
X0117645Y0014284D02*
X0116845Y0014284D01*
X0116845Y0011888D02*
X0117645Y0011888D01*
X0117645Y0011090D02*
X0116845Y0011090D01*
X0116845Y0010291D02*
X0117645Y0010291D01*
X0117645Y0009493D02*
X0116845Y0009493D01*
X0116845Y0008694D02*
X0117645Y0008694D01*
X0119635Y0008694D02*
X0122302Y0008694D01*
X0121901Y0007896D02*
X0100333Y0007896D01*
X0101132Y0008694D02*
X0104861Y0008694D01*
X0103423Y0009493D02*
X0101930Y0009493D01*
X0099535Y0007097D02*
X0120782Y0007097D01*
X0120750Y0009493D02*
X0122445Y0009493D01*
X0122445Y0010291D02*
X0121436Y0010291D01*
X0121894Y0011090D02*
X0122445Y0011090D01*
X0122445Y0011888D02*
X0122181Y0011888D01*
X0122327Y0012687D02*
X0122445Y0012687D01*
X0114855Y0008694D02*
X0108230Y0008694D01*
X0109667Y0009493D02*
X0113740Y0009493D01*
X0113055Y0010291D02*
X0110466Y0010291D01*
X0110933Y0011090D02*
X0112597Y0011090D01*
X0112309Y0011888D02*
X0111264Y0011888D01*
X0111445Y0012687D02*
X0112163Y0012687D01*
X0114441Y0019075D02*
X0109149Y0019075D01*
X0110048Y0019873D02*
X0113642Y0019873D01*
X0112989Y0020672D02*
X0110760Y0020672D01*
X0092577Y0026261D02*
X0089245Y0026261D01*
X0089198Y0027060D02*
X0089484Y0027060D01*
X0088685Y0027858D02*
X0088639Y0027858D01*
X0087088Y0029455D02*
X0083772Y0029455D01*
X0083926Y0030254D02*
X0086290Y0030254D01*
X0085491Y0031052D02*
X0083926Y0031052D01*
X0083645Y0031851D02*
X0084798Y0031851D01*
X0084058Y0032649D02*
X0083177Y0032649D01*
X0077913Y0032649D02*
X0076857Y0032649D01*
X0076857Y0031851D02*
X0077445Y0031851D01*
X0076857Y0031807D02*
X0076762Y0031451D01*
X0076578Y0031131D01*
X0076317Y0030871D01*
X0075998Y0030686D01*
X0075642Y0030591D01*
X0073495Y0030591D01*
X0073495Y0034150D01*
X0072695Y0034150D01*
X0069333Y0034150D01*
X0069333Y0031807D01*
X0069428Y0031451D01*
X0069613Y0031131D01*
X0069873Y0030871D01*
X0070193Y0030686D01*
X0070549Y0030591D01*
X0072695Y0030591D01*
X0072695Y0034150D01*
X0072695Y0034950D01*
X0069333Y0034950D01*
X0069333Y0037293D01*
X0069428Y0037649D01*
X0069613Y0037969D01*
X0069873Y0038229D01*
X0070193Y0038414D01*
X0070549Y0038509D01*
X0072695Y0038509D01*
X0072695Y0034950D01*
X0073495Y0034950D01*
X0073495Y0038509D01*
X0075642Y0038509D01*
X0075998Y0038414D01*
X0076317Y0038229D01*
X0076578Y0037969D01*
X0076762Y0037649D01*
X0076857Y0037293D01*
X0076857Y0034950D01*
X0073495Y0034950D01*
X0073495Y0034150D01*
X0076857Y0034150D01*
X0076857Y0031807D01*
X0077164Y0031052D02*
X0076499Y0031052D01*
X0077164Y0030254D02*
X0063345Y0030254D01*
X0062546Y0029455D02*
X0077318Y0029455D01*
X0077649Y0028657D02*
X0061748Y0028657D01*
X0060949Y0027858D02*
X0077051Y0027858D01*
X0076492Y0027060D02*
X0065651Y0027060D01*
X0066450Y0026261D02*
X0076445Y0026261D01*
X0082645Y0024664D02*
X0083045Y0024664D01*
X0083045Y0023866D02*
X0082645Y0023866D01*
X0082645Y0023067D02*
X0083045Y0023067D01*
X0083045Y0025463D02*
X0092137Y0025463D01*
X0090305Y0024664D02*
X0089245Y0024664D01*
X0089178Y0023866D02*
X0089507Y0023866D01*
X0088708Y0023067D02*
X0088510Y0023067D01*
X0100429Y0030254D02*
X0102454Y0030254D01*
X0101966Y0031052D02*
X0100918Y0031052D01*
X0101249Y0031851D02*
X0101654Y0031851D01*
X0101485Y0032649D02*
X0101445Y0032649D01*
X0084047Y0038239D02*
X0083044Y0038239D01*
X0078141Y0038239D02*
X0076300Y0038239D01*
X0076818Y0037440D02*
X0077621Y0037440D01*
X0077621Y0036642D02*
X0076857Y0036642D01*
X0076857Y0035843D02*
X0077621Y0035843D01*
X0077621Y0035045D02*
X0076857Y0035045D01*
X0077621Y0034246D02*
X0073495Y0034246D01*
X0073495Y0033448D02*
X0072695Y0033448D01*
X0072695Y0034246D02*
X0068657Y0034246D01*
X0068657Y0033448D02*
X0069333Y0033448D01*
X0069333Y0032649D02*
X0068657Y0032649D01*
X0068657Y0031851D02*
X0069333Y0031851D01*
X0069692Y0031052D02*
X0068216Y0031052D01*
X0072695Y0031052D02*
X0073495Y0031052D01*
X0073495Y0031851D02*
X0072695Y0031851D01*
X0072695Y0032649D02*
X0073495Y0032649D01*
X0076857Y0033448D02*
X0077621Y0033448D01*
X0073495Y0035045D02*
X0072695Y0035045D01*
X0072695Y0035843D02*
X0073495Y0035843D01*
X0073495Y0036642D02*
X0072695Y0036642D01*
X0072695Y0037440D02*
X0073495Y0037440D01*
X0073495Y0038239D02*
X0072695Y0038239D01*
X0069890Y0038239D02*
X0068024Y0038239D01*
X0068657Y0037440D02*
X0069372Y0037440D01*
X0069333Y0036642D02*
X0068657Y0036642D01*
X0068657Y0035843D02*
X0069333Y0035843D01*
X0069333Y0035045D02*
X0068657Y0035045D01*
X0062166Y0038239D02*
X0058736Y0038239D01*
X0059534Y0037440D02*
X0061533Y0037440D01*
X0061533Y0036642D02*
X0059962Y0036642D01*
X0060292Y0035843D02*
X0061533Y0035843D01*
X0061533Y0035045D02*
X0060445Y0035045D01*
X0060445Y0034246D02*
X0061533Y0034246D01*
X0061447Y0033448D02*
X0060413Y0033448D01*
X0060649Y0032649D02*
X0060082Y0032649D01*
X0059850Y0031851D02*
X0059752Y0031851D01*
X0059052Y0031052D02*
X0059027Y0031052D01*
X0037046Y0023067D02*
X0033362Y0023067D01*
X0033693Y0023866D02*
X0035663Y0023866D01*
X0035577Y0024664D02*
X0033945Y0024664D01*
X0033945Y0025463D02*
X0035577Y0025463D01*
X0035577Y0026261D02*
X0033945Y0026261D01*
X0033682Y0027060D02*
X0035577Y0027060D01*
X0026442Y0031052D02*
X0023995Y0031052D01*
X0023995Y0031851D02*
X0025432Y0031851D01*
X0024776Y0032649D02*
X0023995Y0032649D01*
X0023995Y0033448D02*
X0024341Y0033448D01*
X0024074Y0034246D02*
X0023995Y0034246D01*
X0028645Y0034246D02*
X0029445Y0034246D01*
X0029445Y0033448D02*
X0028645Y0033448D01*
X0028645Y0032649D02*
X0029445Y0032649D01*
X0029445Y0031851D02*
X0028645Y0031851D01*
X0028645Y0035045D02*
X0029445Y0035045D01*
X0029445Y0035843D02*
X0034657Y0035843D01*
X0034657Y0036642D02*
X0034020Y0036642D01*
X0033755Y0037440D02*
X0034657Y0037440D01*
X0034683Y0038239D02*
X0033323Y0038239D01*
X0032670Y0039037D02*
X0035155Y0039037D01*
X0037046Y0022269D02*
X0032794Y0022269D01*
X0031995Y0021470D02*
X0037046Y0021470D01*
X0037046Y0020672D02*
X0030314Y0020672D01*
X0025723Y0015082D02*
X0023995Y0015082D01*
X0023995Y0014284D02*
X0025723Y0014284D01*
X0025995Y0013485D02*
X0023995Y0013485D01*
X0023995Y0012687D02*
X0026144Y0012687D01*
X0025923Y0011888D02*
X0023995Y0011888D01*
X0023995Y0011090D02*
X0025923Y0011090D01*
X0025923Y0010291D02*
X0023995Y0010291D01*
X0023995Y0009493D02*
X0025923Y0009493D01*
X0025923Y0008694D02*
X0023995Y0008694D01*
X0023995Y0007896D02*
X0025956Y0007896D01*
X0031834Y0007896D02*
X0035577Y0007896D01*
X0061136Y0008694D02*
X0066634Y0008694D01*
X0088936Y0008694D02*
X0091959Y0008694D01*
M02*
