G75*
%MOIN*%
%OFA0B0*%
%FSLAX25Y25*%
%IPPOS*%
%LPD*%
%AMOC8*
5,1,8,0,0,1.08239X$1,22.5*
%
%ADD10C,0.00000*%
D10*
X0022595Y0005500D02*
X0022595Y0034975D01*
X0022597Y0035130D01*
X0022603Y0035285D01*
X0022612Y0035440D01*
X0022626Y0035595D01*
X0022643Y0035749D01*
X0022665Y0035903D01*
X0022690Y0036056D01*
X0022718Y0036208D01*
X0022751Y0036360D01*
X0022787Y0036511D01*
X0022828Y0036661D01*
X0022872Y0036810D01*
X0022919Y0036958D01*
X0022970Y0037104D01*
X0023025Y0037249D01*
X0023084Y0037393D01*
X0023146Y0037535D01*
X0023211Y0037676D01*
X0023281Y0037815D01*
X0023353Y0037952D01*
X0023429Y0038087D01*
X0023508Y0038221D01*
X0023591Y0038352D01*
X0023677Y0038482D01*
X0023766Y0038609D01*
X0023858Y0038734D01*
X0023953Y0038856D01*
X0024051Y0038976D01*
X0024153Y0039094D01*
X0024257Y0039209D01*
X0024364Y0039322D01*
X0024473Y0039431D01*
X0024586Y0039538D01*
X0024701Y0039642D01*
X0024819Y0039744D01*
X0024939Y0039842D01*
X0025061Y0039937D01*
X0025186Y0040029D01*
X0025313Y0040118D01*
X0025443Y0040204D01*
X0025574Y0040287D01*
X0025707Y0040366D01*
X0025843Y0040442D01*
X0025980Y0040514D01*
X0026119Y0040584D01*
X0026260Y0040649D01*
X0026402Y0040711D01*
X0026546Y0040770D01*
X0026691Y0040825D01*
X0026837Y0040876D01*
X0026985Y0040923D01*
X0027134Y0040967D01*
X0027284Y0041008D01*
X0027435Y0041044D01*
X0027587Y0041077D01*
X0027739Y0041105D01*
X0027892Y0041130D01*
X0028046Y0041152D01*
X0028200Y0041169D01*
X0028355Y0041183D01*
X0028510Y0041192D01*
X0028665Y0041198D01*
X0028820Y0041200D01*
X0119572Y0041200D01*
X0119701Y0041198D01*
X0119830Y0041192D01*
X0119959Y0041182D01*
X0120087Y0041169D01*
X0120215Y0041151D01*
X0120342Y0041130D01*
X0120469Y0041105D01*
X0120595Y0041076D01*
X0120719Y0041043D01*
X0120843Y0041007D01*
X0120966Y0040966D01*
X0121087Y0040922D01*
X0121207Y0040875D01*
X0121326Y0040824D01*
X0121443Y0040769D01*
X0121558Y0040711D01*
X0121671Y0040649D01*
X0121783Y0040584D01*
X0121892Y0040515D01*
X0121999Y0040444D01*
X0122104Y0040369D01*
X0122207Y0040291D01*
X0122308Y0040210D01*
X0122406Y0040125D01*
X0122501Y0040038D01*
X0122593Y0039948D01*
X0122683Y0039856D01*
X0122770Y0039761D01*
X0122855Y0039663D01*
X0122936Y0039562D01*
X0123014Y0039459D01*
X0123089Y0039354D01*
X0123160Y0039247D01*
X0123229Y0039138D01*
X0123294Y0039026D01*
X0123356Y0038913D01*
X0123414Y0038798D01*
X0123469Y0038681D01*
X0123520Y0038562D01*
X0123567Y0038442D01*
X0123611Y0038321D01*
X0123652Y0038198D01*
X0123688Y0038074D01*
X0123721Y0037950D01*
X0123750Y0037824D01*
X0123775Y0037697D01*
X0123796Y0037570D01*
X0123814Y0037442D01*
X0123827Y0037314D01*
X0123837Y0037185D01*
X0123843Y0037056D01*
X0123845Y0036927D01*
X0123845Y0009413D01*
X0123843Y0009290D01*
X0123837Y0009167D01*
X0123828Y0009045D01*
X0123814Y0008923D01*
X0123797Y0008801D01*
X0123776Y0008680D01*
X0123751Y0008560D01*
X0123722Y0008440D01*
X0123690Y0008322D01*
X0123654Y0008204D01*
X0123614Y0008088D01*
X0123570Y0007973D01*
X0123523Y0007859D01*
X0123473Y0007747D01*
X0123419Y0007637D01*
X0123361Y0007528D01*
X0123300Y0007422D01*
X0123236Y0007317D01*
X0123169Y0007214D01*
X0123098Y0007114D01*
X0123024Y0007015D01*
X0122947Y0006919D01*
X0122867Y0006826D01*
X0122785Y0006735D01*
X0122699Y0006647D01*
X0122611Y0006561D01*
X0122520Y0006479D01*
X0122427Y0006399D01*
X0122331Y0006322D01*
X0122232Y0006248D01*
X0122132Y0006177D01*
X0122029Y0006110D01*
X0121924Y0006046D01*
X0121818Y0005985D01*
X0121709Y0005927D01*
X0121599Y0005873D01*
X0121487Y0005823D01*
X0121373Y0005776D01*
X0121258Y0005732D01*
X0121142Y0005692D01*
X0121024Y0005656D01*
X0120906Y0005624D01*
X0120786Y0005595D01*
X0120666Y0005570D01*
X0120545Y0005549D01*
X0120423Y0005532D01*
X0120301Y0005518D01*
X0120179Y0005509D01*
X0120056Y0005503D01*
X0119933Y0005501D01*
X0119933Y0005500D02*
X0022595Y0005500D01*
M02*
